<?xml version="1.0" encoding="utf-8"?>
<!-- Generator: Adobe Illustrator 15.0.2, SVG Export Plug-In . SVG Version: 6.00 Build 0)  -->
<!DOCTYPE svg PUBLIC "-//W3C//DTD SVG 1.1//EN" "http://www.w3.org/Graphics/SVG/1.1/DTD/svg11.dtd">
<svg version="1.1" id="Layer_1" xmlns="http://www.w3.org/2000/svg" xmlns:xlink="http://www.w3.org/1999/xlink" x="0px" y="0px"
	 width="400px" height="600px" viewBox="0 0 400 600" enable-background="new 0 0 400 600" xml:space="preserve">
<g>
	<polygon points="233.635,72.662 233.635,109.925 322.215,109.925 323.705,138.022 531.354,127.001 529.378,89.791 489.624,91.9 
		489.624,72.662 	"/>
	<polygon points="409.574,18.631 409.574,0 204.778,0 204.778,37.263 257.278,37.263 257.278,55.894 332.861,55.894 361.631,55.894 
		604.778,55.894 604.778,18.631 	"/>
	<polygon points="306.204,192.055 264.278,192.055 264.278,210.687 222.397,210.687 222.397,247.95 332.861,247.95 332.861,229.318 
		562.909,229.318 562.909,192.055 455.52,192.055 455.52,167.683 402.723,167.683 402.723,149.051 204.778,149.051 204.778,186.314 
		306.204,186.314 	"/>
	<polygon points="494.577,235.019 379.894,255.957 381.322,263.787 303.409,263.787 303.409,301.05 602.04,301.05 602.04,263.787 
		499.829,263.787 	"/>
	
		<rect x="405.571" y="262.562" transform="matrix(-0.0541 0.9985 -0.9985 -0.0541 778.4263 -73.8705)" width="37.262" height="138.403"/>
	<polygon points="231.547,416.943 530.177,416.943 530.177,379.68 303.409,379.68 303.409,361.049 216.278,361.049 216.278,398.311 
		231.547,398.311 	"/>
	<polygon points="442.63,454.688 439.437,417.564 335.853,426.475 339.047,463.599 373.288,460.653 370.601,495.727 483.05,504.343 
		332.861,504.343 332.861,467.081 277.631,467.081 277.631,504.343 222.397,504.343 222.397,541.605 521.028,541.605 
		521.028,507.253 593.868,512.834 596.716,475.68 386.157,459.546 	"/>
	
		<rect x="307.192" y="523.397" transform="matrix(0.0807 0.9967 -0.9967 0.0807 874.7545 205.7778)" width="37.259" height="107.426"/>
</g>
</svg>
