<?xml version="1.0" encoding="utf-8"?>
<!-- Generator: Adobe Illustrator 15.0.2, SVG Export Plug-In . SVG Version: 6.00 Build 0)  -->
<!DOCTYPE svg PUBLIC "-//W3C//DTD SVG 1.1//EN" "http://www.w3.org/Graphics/SVG/1.1/DTD/svg11.dtd">
<svg version="1.1" id="Layer_1" xmlns="http://www.w3.org/2000/svg" xmlns:xlink="http://www.w3.org/1999/xlink" x="0px" y="0px"
	 width="400px" height="600px" viewBox="200 0 400 600" enable-background="new 200 0 400 600" xml:space="preserve">
<rect x="285.831" width="298.63" height="37.263"/>
<rect x="300.474" y="91.293" width="298.631" height="37.263"/>
<rect x="285.831" y="72.662" transform="matrix(-0.998 0.0629 -0.0629 -0.998 875.173 155.04)" width="298.63" height="37.263"/>
<rect x="237.886" y="18.631" width="298.631" height="37.263"/>
<rect x="278.981" y="149.051" width="298.631" height="37.263"/>
<rect x="285.831" y="173.425" width="298.631" height="37.263"/>
<rect x="257.118" y="229.318" transform="matrix(-0.9984 -0.0565 0.0565 -0.9984 798.212 518.4617)" width="298.631" height="37.263"/>
<rect x="268.022" y="266.581" width="298.631" height="37.263"/>
<rect x="268.022" y="313.102" width="298.631" height="37.264"/>
<rect x="247.969" y="328.621" transform="matrix(-0.9945 -0.1046 0.1046 -0.9945 756.0582 734.1636)" width="298.631" height="37.263"/>
<rect x="229.666" y="379.68" transform="matrix(-0.9992 -0.0388 0.0388 -0.9992 742.217 811.0314)" width="298.631" height="37.262"/>
<rect x="208" y="467.081" transform="matrix(-0.9985 0.0541 -0.0541 -0.9985 749.5185 951.1165)" width="307.749" height="37.262"/>
<rect x="278.981" y="495.849" transform="matrix(-0.9994 -0.0333 0.0333 -0.9994 839.2336 1042.9287)" width="298.631" height="37.263"/>
<rect x="247.969" y="560.507" width="298.63" height="37.263"/>
<rect x="213.751" y="210.686" transform="matrix(-0.9992 0.0394 -0.0394 -0.9992 743.9912 443.9893)" width="307.749" height="37.263"/>
</svg>
