<?xml version="1.0" encoding="utf-8"?>
<!-- Generator: Adobe Illustrator 15.0.2, SVG Export Plug-In  -->
<!DOCTYPE svg PUBLIC "-//W3C//DTD SVG 1.1//EN" "http://www.w3.org/Graphics/SVG/1.1/DTD/svg11.dtd" [
	<!ENTITY ns_flows "http://ns.adobe.com/Flows/1.0/">
]>
<svg version="1.1"
	 xmlns="http://www.w3.org/2000/svg" xmlns:xlink="http://www.w3.org/1999/xlink" xmlns:a="http://ns.adobe.com/AdobeSVGViewerExtensions/3.0/"
	 x="0px" y="0px" width="800px" height="600px" viewBox="-42.465 0.227 800 600"
	 overflow="visible" enable-background="new -42.465 0.227 800 600" xml:space="preserve">
<defs>
</defs>
<rect x="76.713" fill="#00FF15" width="298.63" height="37.263"/>
<rect x="91.356" y="91.293" fill="#00FF15" width="298.631" height="37.263"/>
<rect x="76.713" y="72.662" fill="#00FF15" width="298.631" height="37.263"/>
<rect x="28.768" y="18.631" fill="#00FF15" width="298.631" height="37.263"/>
<rect x="69.863" y="149.051" fill="#00FF15" width="298.631" height="37.263"/>
<rect x="76.713" y="173.425" fill="#00FF15" width="298.631" height="37.263"/>
<rect x="48" y="229.318" fill="#00FF15" width="298.631" height="37.263"/>
<rect x="58.904" y="263.787" fill="#00FF15" width="298.631" height="37.263"/>
<rect x="58.904" y="313.102" fill="#00FF15" width="298.631" height="37.263"/>
<rect x="48" y="313.103" fill="#00FF15" width="298.631" height="37.262"/>
<rect x="20.548" y="379.68" fill="#00FF15" width="298.631" height="37.262"/>
<rect y="467.081" fill="#00FF15" width="298.631" height="37.262"/>
<rect x="69.863" y="495.849" fill="#00FF15" width="298.631" height="37.262"/>
<rect x="38.851" y="560.507" fill="#00FF15" width="298.631" height="37.262"/>
<rect y="210.687" fill="#00FF15" width="298.631" height="37.263"/>
</svg>
