<?xml version="1.0" encoding="utf-8"?>
<!-- Generator: Adobe Illustrator 15.0.2, SVG Export Plug-In  -->
<!DOCTYPE svg PUBLIC "-//W3C//DTD SVG 1.1//EN" "http://www.w3.org/Graphics/SVG/1.1/DTD/svg11.dtd" [
	<!ENTITY ns_flows "http://ns.adobe.com/Flows/1.0/">
]>
<svg version="1.1"
	 xmlns="http://www.w3.org/2000/svg" xmlns:xlink="http://www.w3.org/1999/xlink" xmlns:a="http://ns.adobe.com/AdobeSVGViewerExtensions/3.0/"
	 x="0px" y="0px" width="800px" height="600px" viewBox="-13.013 0.227 800 600"
	 overflow="visible" enable-background="new -13.013 0.227 800 600" xml:space="preserve">
<defs>
</defs>
<rect x="106.166" fill="#7F0032" width="298.63" height="37.263"/>
<rect x="120.809" y="91.293" fill="#7F0032" width="298.631" height="37.263"/>
<rect x="184.124" y="72.662" fill="#7F0032" width="298.631" height="37.263"/>
<rect x="328.083" y="18.631" fill="#7F0032" width="298.631" height="37.263"/>
<rect x="58.22" y="18.631" fill="#7F0032" width="298.631" height="37.263"/>
<rect x="99.315" y="149.051" fill="#7F0032" width="298.631" height="37.263"/>
<rect x="99.315" y="186.313" fill="#7F0032" width="298.631" height="37.263"/>
<rect x="356.124" y="173.425" fill="#7F0032" width="298.631" height="37.263"/>
<rect x="77.453" y="229.318" fill="#7F0032" width="298.631" height="37.263"/>
<rect x="298.631" y="263.787" fill="#7F0032" width="298.631" height="37.263"/>
<rect x="88.356" y="313.102" fill="#7F0032" width="298.631" height="37.263"/>
<rect x="77.453" y="313.103" fill="#7F0032" width="298.631" height="37.262"/>
<rect x="226.768" y="379.68" fill="#7F0032" width="298.631" height="37.262"/>
<rect x="29.452" y="467.081" fill="#7F0032" width="298.631" height="37.262"/>
<rect x="184.124" y="495.849" fill="#7F0032" width="298.631" height="37.262"/>
<rect x="120.808" y="416.941" fill="#7F0032" width="298.631" height="37.262"/>
<rect x="68.303" y="560.507" fill="#7F0032" width="298.631" height="37.262"/>
<rect x="206.809" y="533.11" fill="#7F0032" width="298.631" height="37.262"/>
<rect y="361.049" fill="#7F0032" width="298.631" height="37.262"/>
<rect x="376.084" y="467.081" fill="#7F0032" width="298.631" height="37.262"/>
<rect x="29.452" y="210.687" fill="#7F0032" width="298.631" height="37.263"/>
</svg>
